<?xml version="1.0" standalone="no"?>
<!DOCTYPE svg PUBLIC "-//W3C//DTD SVG 20010904//EN"
 "http://www.w3.org/TR/2001/REC-SVG-20010904/DTD/svg10.dtd">
<svg version="1.0" xmlns="http://www.w3.org/2000/svg"
 width="1024.000000pt" height="1024.000000pt" viewBox="0 0 1024.000000 1024.000000"
 preserveAspectRatio="xMidYMid meet">

<g transform="translate(0.000000,1024.000000) scale(0.100000,-0.100000)"
fill="#000000" stroke="none">
<path d="M7821 8349 c-93 -121 -256 -247 -451 -348 -168 -86 -270 -123 -505
-185 -370 -96 -633 -209 -853 -364 -134 -94 -349 -307 -422 -416 -104 -156
-201 -402 -236 -601 -25 -136 -25 -417 0 -575 20 -134 55 -280 66 -280 14 0
63 68 195 270 162 247 212 314 351 476 145 167 288 305 483 460 198 159 564
406 766 518 l50 27 -40 -36 c-22 -20 -110 -91 -195 -158 -396 -311 -700 -622
-1003 -1024 -224 -298 -473 -651 -752 -1068 -88 -132 -224 -330 -301 -440 -77
-110 -189 -272 -249 -360 -184 -271 -426 -615 -458 -651 -68 -78 -161 -94
-231 -40 -19 14 -115 139 -213 277 -98 138 -275 384 -393 547 -119 163 -302
417 -409 564 -106 148 -211 284 -234 304 -126 108 -300 140 -462 84 -160 -55
-273 -147 -335 -274 -72 -146 -71 -293 3 -441 20 -42 252 -371 397 -565 47
-63 187 -250 310 -415 123 -165 253 -338 288 -385 36 -47 231 -307 434 -577
202 -271 397 -526 433 -567 71 -81 172 -154 248 -180 69 -23 222 -22 292 3
122 43 191 120 328 366 46 83 147 263 224 400 77 138 173 313 213 390 41 77
155 289 255 470 100 182 227 416 283 520 55 105 146 273 202 375 57 102 143
262 192 355 50 94 121 224 158 290 37 66 78 142 90 168 12 26 30 52 39 56 9 5
81 27 161 50 323 93 571 234 828 469 293 269 504 662 617 1147 75 323 68 905
-16 1235 -19 74 -74 200 -87 200 -4 0 -31 -32 -61 -71z"/>
</g>
</svg>
